<mxfile host="app.diagrams.net" modified="2023-07-31T05:16:19.399Z" agent="Mozilla/5.0 (Windows NT 10.0; Win64; x64) AppleWebKit/537.36 (KHTML, like Gecko) Chrome/115.0.0.0 Safari/537.36" version="21.6.5" etag="wQY5jAU8gnvSDS_hSL7s" type="github">
  <diagram name="Page-1" id="yc_IwTvK2P0yawi8_8Vx">
    <mxGraphModel>
      <root>
        <mxCell id="0" />
        <mxCell id="1" parent="0" />
      </root>
    </mxGraphModel>
  </diagram>
</mxfile>
